<?xml version="1.0" encoding="UTF-8"?>
<svg version="1.1" xmlns="http://www.w3.org/2000/svg" width="512" height="455">
<path d="M0 0 C3.25724806 -0.37982045 4.61054655 -0.28843481 7.2890625 1.6953125 C12.44508346 7.05826406 17.14975062 12.57270716 21.67993164 18.46655273 C29.43952417 28.53762857 37.98025272 37.98914386 46.5859375 47.33984375 C47.86561572 48.74997461 49.14035552 50.16542524 50.37231445 51.61743164 C55.79632132 57.98532822 61.70317493 63.85440341 67.62426758 69.75463867 C69.43360933 71.55862085 71.23754319 73.36788665 73.04101562 75.17773438 C81.18226115 83.32479863 89.54871827 90.94788226 98.5625 98.125 C99.18318359 98.62386719 99.80386719 99.12273437 100.44335938 99.63671875 C102.28387494 101.10682816 104.13852683 102.55654966 106 104 C106.62479248 104.4954834 107.24958496 104.9909668 107.89331055 105.50146484 C109.53370331 106.75313172 111.26297589 107.8863099 113 109 C116.70113213 108.5140878 116.70113213 108.5140878 120 107 C121.33130115 106.65864073 122.66358148 106.32074044 124 106 C124.66 107.65 125.32 109.3 126 111 C129.3 111 132.6 111 136 111 C136.33 109.68 136.66 108.36 137 107 C144.7643685 107.90584299 144.7643685 107.90584299 146.92578125 108.76953125 C150.28638576 109.14293175 151.84720416 107.28849605 154.4375 105.25 C154.96045654 104.84096436 155.48341309 104.43192871 156.0222168 104.01049805 C157.69542664 102.69009289 159.34947424 101.34862396 161 100 C161.52303711 99.57605957 162.04607422 99.15211914 162.58496094 98.71533203 C175.96032216 87.81704427 188.29057884 75.7952615 200.5 63.625 C201.43191162 62.69776123 202.36382324 61.77052246 203.32397461 60.81518555 C208.42452084 55.70268024 213.3036246 50.48381043 218 45 C219.45445517 43.39231627 220.91220895 41.78760285 222.375 40.1875 C228.23936941 33.68140667 233.70872392 26.86644877 239.17578125 20.02734375 C253.19712414 2.53525057 253.19712414 2.53525057 257 0 C259.71875 -0.1875 259.71875 -0.1875 262 0 C263.20188483 14.42261795 254.74516371 25.37617599 246 36 C238.35051887 44.83252917 228.77189312 51.69994244 219.4453125 58.65234375 C213.21646489 63.34842922 207.70168811 68.17306724 202.5 74 C196.8261396 80.35338519 190.69605336 85.41781846 183.90820312 90.52685547 C180.35532864 93.26969639 176.94135147 96.18199863 173.5 99.0625 C166.25443781 105.09345959 158.76505022 110.65922061 151 116 C151.78375 117.051875 152.5675 118.10375 153.375 119.1875 C155.81404258 123.00276213 156.48079174 126.2080562 157 130.6875 C157.54757853 135.98335175 157.54757853 135.98335175 160.5 140.1875 C161.325 140.785625 162.15 141.38375 163 142 C165.19186097 144.19186097 165.53181928 145.33358668 166.375 148.25 C167.68383629 152.38039794 169.53735457 155.41797028 172 159 C172.64945164 160.42661972 173.2726509 161.86536254 173.875 163.3125 C177.66266457 172.0476179 182.70342853 178.0087186 190 184 C191.57025502 185.38710349 193.13230138 186.78353625 194.6875 188.1875 C195.52667969 188.94417969 196.36585938 189.70085937 197.23046875 190.48046875 C200.89788468 193.81683444 204.53691569 197.18334622 208.17578125 200.55078125 C213.07549506 205.08070534 218.02922753 209.54819888 223 214 C225.45860025 216.21158233 227.91612311 218.42433465 230.37158203 220.6394043 C231.99316243 222.095754 233.62022331 223.54605961 235.25610352 224.98632812 C242.65207309 231.53273425 249.56162284 238.50645306 256.46557617 245.56152344 C262.54826612 251.76791261 268.68978615 257.60942251 275.5234375 263.00756836 C278.12763141 265.10268138 280.59800025 267.30547024 283.0625 269.5625 C286.28851261 272.50311497 289.57119089 275.29867613 293 278 C297.37376961 281.44828545 301.51582406 285.0939073 305.62890625 288.84765625 C307.74503111 290.76855377 309.89309269 292.63989432 312.0625 294.5 C319.35913344 300.88821722 325.77480362 307.76700935 331.83203125 315.3359375 C333.7376723 317.67764416 335.70580013 319.90509323 337.75 322.125 C357.98638896 344.77048289 374.96667447 371.93358521 384 401 C384.33773438 401.91007812 384.67546875 402.82015625 385.0234375 403.7578125 C387.16843421 410.03537167 387.30424335 416.23774685 387.375 422.8125 C387.38901855 423.7209668 387.40303711 424.62943359 387.41748047 425.56542969 C387.36871198 432.33049393 386.0731176 436.54499232 381.625 441.8125 C378.72876007 444.22603328 377.68736792 444.66803474 374 445 C371.35346484 444.50735493 368.8422801 443.94153225 366.25 443.25 C360.25565826 441.73821332 354.28593079 440.45148923 348.1875 439.4375 C342.41081294 438.4621982 336.73921717 437.3040186 331.07421875 435.8046875 C328.81465549 435.21323892 326.54455881 434.66166707 324.26953125 434.1328125 C314.49601873 431.85540761 305.32357116 428.69120886 296 425 C295.06285156 424.66097656 294.12570312 424.32195312 293.16015625 423.97265625 C288.66789571 422.31910695 284.8620675 420.345545 280.875 417.6875 C276.40802643 414.72006288 271.92627329 412.55323974 267 410.5 C259.22134765 407.24262632 252.06649161 403.38550019 245.55078125 397.9609375 C242.91246355 395.93270552 240.40486295 394.67226329 237.375 393.3125 C231.70895996 390.57379754 227.19992743 387.17912215 222.47265625 383.05078125 C220.0760259 380.95176832 220.0760259 380.95176832 217.41015625 379.4765625 C214.86790526 377.91907324 213.28634669 376.33604252 211.375 374.0625 C210.80523437 373.39347656 210.23546875 372.72445313 209.6484375 372.03515625 C208.83246094 371.02775391 208.83246094 371.02775391 208 370 C207.50282471 369.39986084 207.00564941 368.79972168 206.4934082 368.18139648 C202.69356379 362.63102705 201.96176857 355.0728453 200.82421875 348.5625 C200.54094727 346.94408203 200.54094727 346.94408203 200.25195312 345.29296875 C199.87077121 343.06918775 199.50658883 340.84243557 199.15820312 338.61328125 C198.20814793 332.18032601 198.20814793 332.18032601 193.83203125 327.75 C192.43017578 327.37875 192.43017578 327.37875 191 327 C190.29805007 328.80252869 190.29805007 328.80252869 190 331 C190.309375 331.61875 190.61875 332.2375 190.9375 332.875 C193.47585419 337.95170837 191.53051035 342.86828882 190 348 C189.63049535 350.32787927 189.28647533 352.66045145 189 355 C188.34 355 187.68 355 187 355 C186.98018066 355.6297876 186.96036133 356.2595752 186.93994141 356.90844727 C186.84401103 359.7935136 186.7346103 362.6779223 186.625 365.5625 C186.57859375 367.0484668 186.57859375 367.0484668 186.53125 368.56445312 C186.31195164 374.06518686 185.77864379 378.78923244 184 384 C183.7421875 384.86367188 183.484375 385.72734375 183.21875 386.6171875 C182.9815625 387.36226563 182.744375 388.10734375 182.5 388.875 C182.14421875 390.01582031 182.14421875 390.01582031 181.78125 391.1796875 C181 393 181 393 179 394 C178.731875 394.639375 178.46375 395.27875 178.1875 395.9375 C176.59898951 398.6964919 174.91054573 398.86417728 172 400 C171.505 400.680625 171.01 401.36125 170.5 402.0625 C169 404 169 404 166.3125 404.75 C165.549375 404.8325 164.78625 404.915 164 405 C163.63597631 406.43503555 163.28413409 407.87316506 162.9375 409.3125 C162.74027344 410.11300781 162.54304688 410.91351563 162.33984375 411.73828125 C161.80114446 414.15957179 161.80114446 414.15957179 163 417 C164.11960775 429.17573425 163.36260901 438.85264035 156 449 C151.86897166 453.13674207 149.15194105 454.65943138 143.3125 454.9375 C142.19488281 455.00839844 141.07726562 455.07929688 139.92578125 455.15234375 C137 455 137 455 134 453 C129.92509248 452.66042437 128.46998729 452.68667514 125 455 C122.07421875 455.15234375 122.07421875 455.15234375 118.6875 454.9375 C117.57761719 454.88464844 116.46773437 454.83179688 115.32421875 454.77734375 C109.93555966 453.51724603 107.07179811 450.47718301 103.8828125 446.08203125 C98.726477 436.49124721 96.5157961 425.755355 99.58007812 414.95556641 C100.21734428 411.98783274 99.03112751 409.79010973 98 407 C98 406.34 98 405.68 98 405 C97.05125 404.731875 96.1025 404.46375 95.125 404.1875 C92 403 92 403 90 400 C88.4840625 399.2575 88.4840625 399.2575 86.9375 398.5 C84 397 84 397 83 394 C82.01 393.34 81.02 392.68 80 392 C76.95513338 383.88385552 75.56470825 375.53652308 75.17578125 366.90234375 C75.05454419 363.93830222 75.05454419 363.93830222 74.41796875 360.81640625 C74 358 74 358 75 355 C74.34 355 73.68 355 73 355 C72.86722656 354.07316406 72.73445312 353.14632813 72.59765625 352.19140625 C72.42105469 350.99386719 72.24445313 349.79632813 72.0625 348.5625 C71.88847656 347.36753906 71.71445313 346.17257812 71.53515625 344.94140625 C71.31014787 342.12044324 71.31014787 342.12044324 70 341 C69.70739322 336.70843386 70.40565536 333.93271678 72 330 C71.67 329.01 71.34 328.02 71 327 C67.93881629 327.64179714 67.93881629 327.64179714 65 330 C63.54665158 333.84876959 63.00403082 337.82127833 62.375 341.875 C61.96344521 344.1556387 61.54811702 346.43559989 61.12890625 348.71484375 C60.93441895 349.80651855 60.73993164 350.89819336 60.53955078 352.02294922 C58.44022533 363.60628609 55.16085353 370.27133625 46 378 C45.10539063 378.78246094 44.21078125 379.56492187 43.2890625 380.37109375 C36.13260717 386.45100494 28.527935 391.9427443 20 395.9375 C16.63757 397.52701236 13.88459635 399.5468383 10.9375 401.8125 C4.43082731 406.67891119 -2.61002702 409.74070353 -10 413 C-14.32505648 415.02072311 -18.36709817 417.23028894 -22.390625 419.80078125 C-28.44548908 423.44253489 -34.78417218 425.8035315 -41.4375 428.125 C-43.28214844 428.77674194 -43.28214844 428.77674194 -45.1640625 429.44165039 C-54.38065436 432.61918359 -63.51131074 434.9436369 -73.09716797 436.63964844 C-75.7887538 437.14937139 -78.41824337 437.85016964 -81.0625 438.5625 C-86.84660269 440.06571313 -92.6929957 441.01104126 -98.59594727 441.91040039 C-102.09981821 442.45629192 -105.47699371 443.08178306 -108.87890625 444.09375 C-112.2555333 445.0741974 -113.74750513 445.28387956 -117 444 C-121.27865043 440.43445798 -124.4422159 436.52111376 -125.33496094 430.88549805 C-128.38900436 388.82178723 -99.06675842 349.31431571 -73 319 C-70.68205408 316.34272253 -68.3249955 313.72368294 -65.94140625 311.125 C-64.08651255 309.09469382 -62.28991984 307.02506027 -60.5 304.9375 C-54.20124457 297.72229747 -47.29840645 291.1880506 -40 285 C-39.00871094 284.154375 -38.01742187 283.30875 -36.99609375 282.4375 C-31.89278926 278.09414827 -26.76325836 273.78907501 -21.5625 269.5625 C-9.63484535 259.81454152 1.58158935 249.68198452 12.375 238.6875 C26.4447093 224.4016517 26.4447093 224.4016517 34 218 C36.0171721 216.18466799 38.00664482 214.34168685 40 212.5 C43.2778141 209.47995128 46.56583268 206.47795863 49.9375 203.5625 C54.03839668 200.00612072 58.01342887 196.31865582 61.99389648 192.62890625 C66.48448886 188.46749795 71.01383541 184.35186474 75.5625 180.25390625 C82.79616028 173.56508897 87.19784947 167.1874053 91.02734375 158.1640625 C91.94665861 156.11867925 92.97659105 154.23640282 94.125 152.3125 C96.07603038 149.12830941 96.07603038 149.12830941 97 145.875 C98.34314594 142.01345541 100.27134238 138.86432881 104 137 C104.53721095 133.87315679 104.83144887 130.74645077 105.14453125 127.58984375 C106.22616569 123.05093027 108.35228255 119.79061706 111 116 C110.030625 115.28457031 109.06125 114.56914063 108.0625 113.83203125 C99.38410427 107.39343298 90.91171937 100.75680206 82.55859375 93.90234375 C79.78697965 91.63030275 76.97724487 89.42051323 74.125 87.25 C67.87997323 82.42321404 61.79692478 77.33198272 56.8125 71.1875 C50.82152024 64.07232214 42.82112211 58.66198556 35.44921875 53.0625 C21.09556064 42.14637245 4.15099417 27.41338439 0 9 C-0.21274909 5.9789629 -0.18882785 3.02124553 0 0 Z " fill="#C90202" transform="translate(125,0)"/>
<path d="M0 0 C9.3455115 3.10707389 14.45545138 12.73424908 19.125 20.875 C19.66705078 21.80610596 20.20910156 22.73721191 20.76757812 23.6965332 C28.70156555 37.49147048 36.11495584 51.65981908 42.90625 66.05078125 C43.51436523 67.33915894 43.51436523 67.33915894 44.13476562 68.65356445 C45 71 45 71 45 75 C36.585 75.495 36.585 75.495 28 76 C27.18402344 73.42058594 27.18402344 73.42058594 26.3515625 70.7890625 C24.11839661 64.10132866 21.3589571 57.75743292 18.375 51.375 C17.85373535 50.252146 17.3324707 49.12929199 16.79541016 47.97241211 C11.8093401 37.36206108 6.51335858 26.77003788 0 17 C-0.22705078 15.09887695 -0.22705078 15.09887695 -0.1953125 12.98828125 C-0.18886719 12.23095703 -0.18242187 11.47363281 -0.17578125 10.69335938 C-0.15902344 9.90767578 -0.14226562 9.12199219 -0.125 8.3125 C-0.11597656 7.51521484 -0.10695313 6.71792969 -0.09765625 5.89648438 C-0.07411585 3.930861 -0.03824547 1.96539225 0 0 Z " fill="#060202" transform="translate(418,310)"/>
<path d="M0 0 C0.28462017 10.5764854 0.04976663 18.97342869 -5.99682617 27.86694336 C-10.04705034 33.83333495 -13.15964292 40.1149855 -16.25 46.625 C-16.76578613 47.71014893 -17.28157227 48.79529785 -17.81298828 49.91333008 C-21.80078853 58.40116669 -25.71845591 66.87382364 -28 76 C-33.61 75.67 -39.22 75.34 -45 75 C-44.249144 70.49486401 -43.7751179 68.03547041 -41.91796875 64.15625 C-41.27106079 62.79802124 -41.27106079 62.79802124 -40.61108398 61.41235352 C-40.14130127 60.45127686 -39.67151855 59.4902002 -39.1875 58.5 C-38.69902588 57.49187256 -38.21055176 56.48374512 -37.70727539 55.44506836 C-10.56521616 0 -10.56521616 0 0 0 Z " fill="#060202" transform="translate(94,310)"/>
<path d="M0 0 C4.62 0 9.24 0 14 0 C18.79274208 10.09535033 22.97886811 20.2846613 26.5625 30.875 C27.10003906 32.43444336 27.10003906 32.43444336 27.6484375 34.02539062 C28.13376953 35.49395508 28.13376953 35.49395508 28.62890625 36.9921875 C28.91838135 37.86214355 29.20785645 38.73209961 29.50610352 39.62841797 C30.03276278 42.15731963 29.83850322 43.58480315 29 46 C26.04160645 46.02689449 23.08345573 46.04678741 20.125 46.0625 C19.28324219 46.07087891 18.44148438 46.07925781 17.57421875 46.08789062 C16.76855469 46.09111328 15.96289062 46.09433594 15.1328125 46.09765625 C14.01737061 46.10551147 14.01737061 46.10551147 12.87939453 46.11352539 C11 46 11 46 9 45 C8.26977539 42.19946289 8.26977539 42.19946289 7.59765625 38.47265625 C7.4744249 37.80971054 7.35119354 37.14676483 7.22422791 36.46372986 C6.82871831 34.33140843 6.44470911 32.19724251 6.0625 30.0625 C5.56022842 27.28125527 5.05176344 24.50127468 4.53515625 21.72265625 C4.41048981 21.05005768 4.28582336 20.37745911 4.15737915 19.68447876 C3.26317643 15.00841037 2.0819245 10.51789257 0.54858398 6.01342773 C0 4 0 4 0 0 Z " fill="#060202" transform="translate(371,339)"/>
<path d="M0 0 C1.93166016 0.01740234 1.93166016 0.01740234 3.90234375 0.03515625 C5.19269531 0.04417969 6.48304688 0.05320312 7.8125 0.0625 C8.81152344 0.07410156 9.81054688 0.08570313 10.83984375 0.09765625 C9.92589944 7.91695753 7.92775065 15.49641061 6.09960938 23.14257812 C4.38421954 30.42553594 2.97087956 37.70113411 1.83984375 45.09765625 C-0.86731867 46.00004372 -2.39792393 46.21616927 -5.171875 46.1953125 C-6.30786133 46.19047852 -6.30786133 46.19047852 -7.46679688 46.18554688 C-8.64532227 46.17297852 -8.64532227 46.17297852 -9.84765625 46.16015625 C-10.64494141 46.15564453 -11.44222656 46.15113281 -12.26367188 46.14648438 C-14.22919882 46.13471475 -16.1946871 46.11677973 -18.16015625 46.09765625 C-19.66620183 42.19546722 -18.59737447 39.63422527 -17.24609375 35.78515625 C-16.81425781 34.54378906 -16.38242188 33.30242187 -15.9375 32.0234375 C-15.70659668 31.37713379 -15.47569336 30.73083008 -15.23779297 30.06494141 C-14.54866306 28.13547344 -13.87445926 26.20134675 -13.203125 24.265625 C-4.77354648 0.1475138 -4.77354648 0.1475138 0 0 Z " fill="#060202" transform="translate(130.16015625,338.90234375)"/>
<path d="M0 0 C4.13587618 0.47721648 7.49795014 2.9122395 11 5 C9.59024224 9.65647261 7.62869495 13.83432201 5.375 18.125 C-0.72016661 30.00232675 -5.34325729 42.50560109 -10 55 C-15.28 54.34 -20.56 53.68 -26 53 C-25.12752213 48.63761065 -24.09145892 45.74372322 -22.19140625 41.80078125 C-21.76754135 40.91778603 -21.76754135 40.91778603 -21.33511353 40.01695251 C-20.4175428 38.11217581 -19.4907101 36.21211221 -18.5625 34.3125 C-18.24930817 33.66704224 -17.93611633 33.02158447 -17.61343384 32.35656738 C-3.70076146 3.70076146 -3.70076146 3.70076146 0 0 Z " fill="#070202" transform="translate(95,332)"/>
<path d="M0 0 C1.7096664 2.54469063 3.14656333 4.98439997 4.5625 7.6875 C5.20179443 8.87472656 5.20179443 8.87472656 5.85400391 10.0859375 C7.25691847 12.71353792 8.63248196 15.35381264 10 18 C10.48549316 18.93924316 10.97098633 19.87848633 11.47119141 20.84619141 C12.95034108 23.72525927 14.41650147 26.61041926 15.875 29.5 C16.32689697 30.39420654 16.77879395 31.28841309 17.24438477 32.2097168 C25 47.80042534 25 47.80042534 25 52 C24.18015625 52.06058594 23.3603125 52.12117188 22.515625 52.18359375 C21.43796875 52.26738281 20.3603125 52.35117187 19.25 52.4375 C18.18265625 52.51871094 17.1153125 52.59992188 16.015625 52.68359375 C13.55228327 52.94205318 11.38045134 53.36895582 9 54 C8.57074219 52.8553125 8.14148438 51.710625 7.69921875 50.53125 C7.42384277 49.79777344 7.1484668 49.06429687 6.86474609 48.30859375 C6.31588514 46.84331166 5.76908897 45.37725318 5.22509766 43.91015625 C0.68527937 31.69622681 -4.71664149 20.21941768 -10.734375 8.671875 C-12 6 -12 6 -12 4 C-10.390625 2.67578125 -10.390625 2.67578125 -8.25 1.3125 C-7.55390625 0.85488281 -6.8578125 0.39726562 -6.140625 -0.07421875 C-3.52231709 -1.20658914 -2.62935061 -0.99982619 0 0 Z " fill="#070202" transform="translate(418,333)"/>
<path d="M0 0 C3.63 0 7.26 0 11 0 C16.92124771 11.02338948 22.81696793 22.026119 27.6875 33.5625 C28.01363281 34.32796143 28.33976562 35.09342285 28.67578125 35.88208008 C30.33418581 39.91407617 31.4827671 43.63455436 32 48 C29.39635591 48.24867947 26.79410106 48.47457902 24.1875 48.6875 C23.44951172 48.76033203 22.71152344 48.83316406 21.95117188 48.90820312 C16.44571353 49.33169992 16.44571353 49.33169992 14.34790039 47.77050781 C12.78106626 45.71242393 12.25621074 44.10593456 11.640625 41.59765625 C11.4152002 40.7164209 11.18977539 39.83518555 10.95751953 38.92724609 C10.72403809 37.98187988 10.49055664 37.03651367 10.25 36.0625 C7.99436122 27.30864623 5.33729211 18.81981715 2.18457031 10.34790039 C1.89936523 9.57051514 1.61416016 8.79312988 1.3203125 7.9921875 C1.06523926 7.31526855 0.81016602 6.63834961 0.54736328 5.94091797 C0 4 0 4 0 0 Z " fill="#080202" transform="translate(391,339)"/>
<path d="M0 0 C3.63 0 7.26 0 11 0 C10.4225651 4.89786442 9.39161192 9.27074012 7.78515625 13.9296875 C7.46145302 14.88163498 7.46145302 14.88163498 7.13121033 15.85281372 C6.44745256 17.8622539 5.75582249 19.86884174 5.0625 21.875 C1.49185196 31.93095398 1.49185196 31.93095398 -1.12890625 42.2578125 C-2.20739436 46.89095874 -2.20739436 46.89095874 -5 49 C-7.83056579 49.05538697 -10.39069365 48.9635167 -13.1875 48.6875 C-13.93708984 48.62626953 -14.68667969 48.56503906 -15.45898438 48.50195312 C-17.30722745 48.34891389 -19.1538335 48.17633121 -21 48 C-19.6283678 40.11934953 -16.72947252 33.45444756 -13.3125 26.25 C-12.77592773 25.10289551 -12.23935547 23.95579102 -11.68652344 22.77392578 C-8.04150554 15.0389737 -4.2625923 7.41450915 0 0 Z " fill="#080202" transform="translate(110,339)"/>
<path d="M0 0 C0.33 0 0.66 0 1 0 C2.08191054 9.67708869 -0.41747054 17.90123659 -3.2109375 27.0234375 C-4.53727055 31.35788804 -5.72631036 35.71059438 -6.8515625 40.1015625 C-7.15763428 41.28927246 -7.46370605 42.47698242 -7.77905273 43.70068359 C-8.37845055 46.04253941 -8.96930016 48.38660196 -9.55102539 50.73291016 C-9.8268042 51.79558105 -10.10258301 52.85825195 -10.38671875 53.953125 C-10.62608154 54.90348633 -10.86544434 55.85384766 -11.11206055 56.83300781 C-11.40508057 57.54811523 -11.69810059 58.26322266 -12 59 C-15 60 -15 60 -17.375 59.4375 C-20.57533977 58.90411004 -22.08470118 59.69578737 -25 61 C-25.99 61 -26.98 61 -28 61 C-26.1302366 53.53350116 -23.78571919 46.47130571 -20.8125 39.375 C-20.41812744 38.42713623 -20.02375488 37.47927246 -19.61743164 36.50268555 C-18.42555052 33.66227028 -17.21772637 30.82942303 -16 28 C-15.64711914 27.17999512 -15.29423828 26.35999023 -14.93066406 25.51513672 C-10.90608902 16.28490338 -6.64982371 7.67797601 0 0 Z " fill="#090303" transform="translate(178,266)"/>
<path d="M0 0 C4.01080929 1.33693643 5.08705588 3.83380987 7.125 7.3125 C7.71269165 8.30914673 7.71269165 8.30914673 8.31225586 9.32592773 C29 45.31161643 29 45.31161643 29 60 C25.95551293 59.49258549 22.91271947 58.98428951 19.875 58.4375 C16.8256037 57.89970534 16.8256037 57.89970534 13 58 C11.13049902 51.35212757 9.28134444 44.69883154 7.44580078 38.04150391 C6.81986915 35.78045919 6.18940078 33.52066504 5.55419922 31.26220703 C4.63855904 28.00356293 3.7396787 24.74067355 2.84375 21.4765625 C2.55939087 20.47823395 2.27503174 19.4799054 1.98205566 18.45132446 C0.279484 12.16984694 -0.36440489 6.50266962 0 0 Z " fill="#090303" transform="translate(333,267)"/>
<path d="M0 0 C-1.37554211 8.07524132 -3.09141714 16.03497351 -5 24 C-5.39058594 25.67642578 -5.39058594 25.67642578 -5.7890625 27.38671875 C-6.04429687 28.45535156 -6.29953125 29.52398437 -6.5625 30.625 C-6.79066406 31.58664062 -7.01882812 32.54828125 -7.25390625 33.5390625 C-8 36 -8 36 -10 39 C-12.42578125 39.4765625 -12.42578125 39.4765625 -15.3125 39.625 C-18.97263375 39.83472117 -22.4178739 40.20397198 -26 41 C-25.36328567 34.92672487 -24.19757622 29.16309275 -22.6875 23.25 C-22.46747314 22.37762695 -22.24744629 21.50525391 -22.02075195 20.60644531 C-20.3139 13.95630883 -18.34843706 7.45492198 -16 1 C-10.61186828 0.0828712 -5.45836365 -0.09016808 0 0 Z " fill="#080202" transform="translate(162,337)"/>
<path d="M0 0 C5.28 0.33 10.56 0.66 16 1 C19.09693348 10.40435467 22.10219917 19.79508937 24.375 29.4375 C24.62588379 30.49118774 24.62588379 30.49118774 24.88183594 31.56616211 C25.62677852 34.83469782 26 37.62260038 26 41 C23.37243412 40.74562289 20.74928226 40.47235799 18.125 40.1875 C17.37863281 40.11724609 16.63226563 40.04699219 15.86328125 39.97460938 C13.89448223 39.75289777 11.94363342 39.38420661 10 39 C8.00489519 36.00734278 7.38129422 34.07596319 6.5625 30.625 C6.30726563 29.55636719 6.05203125 28.48773438 5.7890625 27.38671875 C5.52867187 26.26910156 5.26828125 25.15148437 5 24 C4.73960937 22.91332031 4.47921875 21.82664062 4.2109375 20.70703125 C2.58530818 13.83505277 1.20601244 6.95776405 0 0 Z " fill="#080202" transform="translate(350,337)"/>
<path d="M0 0 C-0.58020158 3.6683974 -1.57464368 6.41007034 -3.40625 9.6328125 C-3.89883301 10.51259766 -4.39141602 11.39238281 -4.89892578 12.29882812 C-5.42728027 13.23146484 -5.95563477 14.16410156 -6.5 15.125 C-10.59465224 22.48677956 -14.52805266 29.88142372 -18.125 37.5 C-18.49044922 38.26973145 -18.85589844 39.03946289 -19.23242188 39.83251953 C-21.0941289 43.82455131 -22.70450749 47.77963263 -24 52 C-24.66 51.731875 -25.32 51.46375 -26 51.1875 C-29.64939067 49.74294953 -33.32245433 48.37128822 -37 47 C-34.92632115 30.8375031 -18.14827951 16.06704565 -7.3125 5.0625 C-6.8074292 4.54792236 -6.3023584 4.03334473 -5.78198242 3.50317383 C-2.24594922 0 -2.24594922 0 0 0 Z " fill="#060202" transform="translate(70,330)"/>
<path d="M0 0 C4.6021483 2.08293909 7.60551915 5.2621349 11.125 8.8125 C11.79152588 9.48466553 12.45805176 10.15683105 13.14477539 10.84936523 C37 35.28607354 37 35.28607354 37 47 C35.07942708 47.71614583 33.15885417 48.43229167 31.23828125 49.1484375 C28.81382414 50.0708313 26.40609199 51.03082109 24 52 C23.48566406 50.62908203 23.48566406 50.62908203 22.9609375 49.23046875 C19.15559898 39.42305072 14.61123594 30.06807341 9.75 20.75 C9.44036316 20.15569183 9.13072632 19.56138367 8.81170654 18.94906616 C5.24684905 12.03001393 5.24684905 12.03001393 1.30566406 5.32519531 C0 3 0 3 0 0 Z " fill="#080303" transform="translate(442,330)"/>
<path d="M0 0 C-1.27970194 9.77090067 -2.97465089 19.35933823 -5 29 C-6.44632813 29.02126953 -6.44632813 29.02126953 -7.921875 29.04296875 C-9.18515625 29.09066406 -10.4484375 29.13835937 -11.75 29.1875 C-13.00296875 29.22230469 -14.2559375 29.25710938 -15.546875 29.29296875 C-19.7732962 30.15833327 -20.62975733 31.52770525 -23 35 C-23.66 35 -24.32 35 -25 35 C-23.90425255 29.75440052 -22.74662145 24.52963813 -21.52050781 19.31298828 C-21.07262362 17.32271867 -20.69713134 15.31640659 -20.3359375 13.30859375 C-19.58725618 10.0218005 -18.94372708 7.76309681 -17 5 C-11.72743103 2.02589223 -6.12287265 0 0 0 Z " fill="#090303" transform="translate(184,331)"/>
<path d="M0 0 C2.17557701 0.42806492 4.32971965 0.8928562 6.484375 1.41796875 C8.93197242 2.03697644 8.93197242 2.03697644 11.203125 2.23828125 C13.81743775 2.73220675 15.01126494 3.18929581 17 5 C19.29882839 10.18695036 20.6748873 15.49834737 22 21 C22.18981445 21.71365723 22.37962891 22.42731445 22.57519531 23.16259766 C23.48343374 26.59433916 24 29.42273283 24 33 C20.125 31.125 20.125 31.125 19 30 C16.65012738 29.76472227 14.29443961 29.58613583 11.9375 29.4375 C10.64714844 29.35371094 9.35679687 29.26992188 8.02734375 29.18359375 C6.52880859 29.09271484 6.52880859 29.09271484 5 29 C2.97465089 19.35933823 1.27970194 9.77090067 0 0 Z " fill="#080303" transform="translate(328,331)"/>
<path d="M0 0 C0.33 0 0.66 0 1 0 C1.65334118 11.32458054 -2.44619165 22.0395077 -6.25 32.5625 C-6.60707031 33.62791016 -6.96414062 34.69332031 -7.33203125 35.79101562 C-10.03484882 43.23553578 -10.03484882 43.23553578 -12.75415039 45.3894043 C-16.39290827 47.04321139 -19.2272433 47.25758557 -23 46 C-23.95285539 43.45527258 -24.10773234 42.29820641 -23.1706543 39.7043457 C-22.72633057 38.86991943 -22.28200684 38.03549316 -21.82421875 37.17578125 C-21.33034668 36.23694092 -20.83647461 35.29810059 -20.32763672 34.33081055 C-19.7863916 33.33476807 -19.24514648 32.33872559 -18.6875 31.3125 C-18.14367676 30.29260986 -17.59985352 29.27271973 -17.03955078 28.22192383 C-4.0593017 4.0593017 -4.0593017 4.0593017 0 0 Z " fill="#0D0404" transform="translate(158,280)"/>
<path d="M0 0 C3.71027634 1.23675878 3.96466214 2.18638792 5.8203125 5.53125 C6.35188965 6.47959717 6.8834668 7.42794434 7.43115234 8.4050293 C7.99012207 9.42636963 8.5490918 10.44770996 9.125 11.5 C9.69814941 12.53487549 10.27129883 13.56975098 10.86181641 14.63598633 C12.02647139 16.74515405 13.1864736 18.85689771 14.34179688 20.97119141 C15.84258143 23.71246543 17.3632933 26.44143462 18.890625 29.16796875 C19.72011635 30.67372728 20.54833388 32.18018856 21.375 33.6875 C21.76187988 34.37457031 22.14875977 35.06164062 22.54736328 35.76953125 C25.06210322 40.44195825 25.06210322 40.44195825 24.7265625 43.45703125 C24.48679687 43.96621094 24.24703125 44.47539062 24 45 C20.29514583 46.23495139 17.37529061 46.12353973 13.78979492 44.49633789 C9.58796892 40.98344857 8.37084242 34.90116886 6.6875 29.875 C6.25888672 28.67617188 5.83027344 27.47734375 5.38867188 26.2421875 C2.34160913 17.57160647 -0.39445748 9.26975078 0 0 Z " fill="#0D0303" transform="translate(353,281)"/>
<path d="M0 0 C-1.25245757 4.04520458 -2.74420285 7.64066547 -4.79296875 11.34375 C-5.33800049 12.33697266 -5.88303223 13.33019531 -6.44458008 14.35351562 C-7.01974365 15.39185547 -7.59490723 16.43019531 -8.1875 17.5 C-12.98440697 26.24741781 -17.65245141 35.020336 -22 44 C-24.91985181 43.31911019 -27.35122304 42.41898766 -30 41 C-29.40968631 36.95865676 -28.1176172 34.0869324 -26.05078125 30.578125 C-25.44943359 29.55203125 -24.84808594 28.5259375 -24.22851562 27.46875 C-23.59623047 26.4065625 -22.96394531 25.344375 -22.3125 24.25 C-21.69955078 23.20328125 -21.08660156 22.1565625 -20.45507812 21.078125 C-7.65613054 -0.63801088 -7.65613054 -0.63801088 0 0 Z " fill="#0B0404" transform="translate(150,282)"/>
<path d="M0 0 C2.38671875 0.515625 2.38671875 0.515625 5.38671875 2.515625 C3.9661288 6.29280912 2.24081697 9.74230741 0.26953125 13.26171875 C-0.33761719 14.34646484 -0.94476563 15.43121094 -1.5703125 16.54882812 C-2.20324219 17.67224609 -2.83617188 18.79566406 -3.48828125 19.953125 C-4.11347656 21.07267578 -4.73867187 22.19222656 -5.3828125 23.34570312 C-8.2979553 28.53810864 -11.26786535 33.59157099 -14.61328125 38.515625 C-17.11328125 37.328125 -17.11328125 37.328125 -19.61328125 35.515625 C-19.92578125 32.828125 -19.92578125 32.828125 -19.61328125 30.515625 C-20.27328125 30.515625 -20.93328125 30.515625 -21.61328125 30.515625 C-20.66913432 25.00594563 -16.95531957 20.78640221 -13.83398438 16.29199219 C-12.54429961 14.41524292 -11.28959178 12.51764792 -10.03515625 10.6171875 C-9.16637487 9.33264946 -8.29660068 8.04878227 -7.42578125 6.765625 C-7.02238525 6.14510254 -6.61898926 5.52458008 -6.20336914 4.88525391 C-3.27173078 0.64554329 -3.27173078 0.64554329 0 0 Z " fill="#090303" transform="translate(128.61328125,284.484375)"/>
<path d="M0 0 C3.13682153 2.91843522 5.50076891 6.53116755 8 10 C8.47405273 10.65709961 8.94810547 11.31419922 9.43652344 11.99121094 C10.97084289 14.13100174 12.48880202 16.28132604 14 18.4375 C14.49322754 19.13560791 14.98645508 19.83371582 15.49462891 20.55297852 C15.95015137 21.21483154 16.40567383 21.87668457 16.875 22.55859375 C17.28492188 23.14954834 17.69484375 23.74050293 18.1171875 24.34936523 C19 26 19 26 19 29 C18.34 29 17.68 29 17 29 C17.103125 29.763125 17.20625 30.52625 17.3125 31.3125 C17.209375 32.199375 17.10625 33.08625 17 34 C14.48046875 35.66796875 14.48046875 35.66796875 12 37 C10.60058639 34.66959438 9.20190634 32.33875394 7.80419922 30.00732422 C6.59680403 27.99478105 5.38747852 25.98339474 4.17626953 23.97314453 C2.29448113 20.84242962 0.42758593 17.70318874 -1.4375 14.5625 C-2.08654297 13.48806641 -2.73558594 12.41363281 -3.40429688 11.30664062 C-4.01208984 10.27861328 -4.61988281 9.25058594 -5.24609375 8.19140625 C-5.79966553 7.26529541 -6.3532373 6.33918457 -6.92358398 5.38500977 C-8 3 -8 3 -7 0 C-4.23626778 -1.38186611 -2.9176632 -0.91560302 0 0 Z " fill="#090303" transform="translate(386,286)"/>
<path d="M0 0 C3.36417993 -0.49473234 4.80539119 -0.12345848 7.703125 1.71484375 C12.67375535 6.04136006 15.473208 12.18956786 18.625 17.875 C19.28535763 19.04619421 19.94680852 20.21677271 20.609375 21.38671875 C21.86634094 23.61312603 23.11699741 25.84311102 24.36035156 28.07714844 C25.6929721 30.4526894 27.06414375 32.79499499 28.4609375 35.1328125 C30 38 30 38 30 41 C27.11165997 43.10770759 25.61537605 44 22 44 C21.68885254 43.36723145 21.37770508 42.73446289 21.05712891 42.08251953 C15.27890859 30.35856352 9.46427193 18.69474409 2.94775391 7.35986328 C0 2.19611924 0 2.19611924 0 0 Z " fill="#0A0404" transform="translate(362,282)"/>
<path d="M0 0 C-1.66694192 4.57294762 -3.9359815 8.70690426 -6.3125 12.9375 C-6.69083984 13.62779297 -7.06917969 14.31808594 -7.45898438 15.02929688 C-13.70205369 26.17386223 -13.70205369 26.17386223 -18.23828125 27.8046875 C-20.15885417 27.86979167 -22.07942708 27.93489583 -24 28 C-22.96538773 22.66085215 -19.77338301 18.5085958 -16.875 14 C-16.318125 13.09765625 -15.76125 12.1953125 -15.1875 11.265625 C-11.38359615 5.34065034 -7.68362014 0 0 0 Z " fill="#0C0404" transform="translate(173,246)"/>
<path d="M0 0 C5.00441874 0.71491696 8.57064884 2.28681274 11.8527832 6.22070312 C12.41312256 7.06568359 12.97346191 7.91066406 13.55078125 8.78125 C14.16630859 9.70550781 14.78183594 10.62976563 15.41601562 11.58203125 C16.35477539 13.02642578 16.35477539 13.02642578 17.3125 14.5 C18.28026367 15.94439453 18.28026367 15.94439453 19.26757812 17.41796875 C24 24.59923115 24 24.59923115 24 28 C17.3141254 28.11729605 17.3141254 28.11729605 14.2265625 25.4921875 C9.62686992 19.81275488 0 7.50737882 0 0 Z " fill="#0B0404" transform="translate(339,246)"/>
<path d="M0 0 C10.43768575 7.17226451 23.52638724 17.86847545 26 31 C21.35246083 30.72661534 18.65873127 30.21105717 15.4387207 26.78100586 C12.16518729 22.72866813 9.45953828 18.27714524 6.6875 13.875 C5.71973633 12.37259766 5.71973633 12.37259766 4.73242188 10.83984375 C4.12333984 9.87949219 3.51425781 8.91914063 2.88671875 7.9296875 C2.33201904 7.05554199 1.77731934 6.18139648 1.20581055 5.28076172 C0 3 0 3 0 0 Z " fill="#110606" transform="translate(353,247)"/>
<path d="M0 0 C-1.64043697 4.71052849 -4.1565385 8.68961148 -6.8125 12.875 C-7.23853516 13.55691406 -7.66457031 14.23882812 -8.10351562 14.94140625 C-9.38310716 16.97404031 -10.68774309 18.98833309 -12 21 C-12.41902588 21.66555908 -12.83805176 22.33111816 -13.26977539 23.0168457 C-15.08656471 25.77192622 -16.41009536 27.73083842 -19.45703125 29.12109375 C-20.23433594 29.22550781 -21.01164063 29.32992188 -21.8125 29.4375 C-22.60269531 29.55996094 -23.39289063 29.68242187 -24.20703125 29.80859375 C-24.79871094 29.87175781 -25.39039063 29.93492187 -26 30 C-24.02337238 18.82546519 -13.04000422 9.31342606 -5 2 C-2 0 -2 0 0 0 Z " fill="#0F0606" transform="translate(159,248)"/>
<path d="M0 0 C3.75699051 1.25233017 4.00452721 2.28628353 5.84765625 5.69921875 C6.37037109 6.66150391 6.89308594 7.62378906 7.43164062 8.61523438 C7.96982422 9.62908203 8.50800781 10.64292969 9.0625 11.6875 C9.87557617 13.17926758 9.87557617 13.17926758 10.70507812 14.70117188 C14.33369224 21.44258969 17.3731254 27.16436665 17 35 C13.86301061 31.22992204 11.16687292 27.27167095 8.5625 23.125 C6.17213305 19.3324022 3.790848 15.64000389 1 12.125 C-1.50850138 8.2054666 -1.75791566 5.59960255 -2 1 C-1.34 0.67 -0.68 0.34 0 0 Z " fill="#110606" transform="translate(332,247)"/>
<path d="M0 0 C1.32 0.33 2.64 0.66 4 1 C3.346654 8.52981269 0.85905105 13.14272371 -3.76171875 19.0390625 C-7.00942215 23.33532633 -9.68261897 27.91853169 -12.43359375 32.54296875 C-13.20896484 33.75919922 -13.20896484 33.75919922 -14 35 C-14.33 35 -14.66 35 -15 35 C-14.79395024 27.33048294 -12.94578448 21.88479692 -9.1875 15.25 C-8.74857422 14.43917969 -8.30964844 13.62835938 -7.85742188 12.79296875 C-5.44013157 8.37503848 -2.86509371 4.14069487 0 0 Z " fill="#100606" transform="translate(178,247)"/>
<path d="M0 0 C0.33 0 0.66 0 1 0 C1 8.58 1 17.16 1 26 C-1.31 25.67 -3.62 25.34 -6 25 C-5.52897524 16.20753786 -2.75783166 8.29384797 0 0 Z " fill="#1E0A0A" transform="translate(178,295)"/>
<path d="M0 0 C4.25364554 1.84735163 6.86654585 4.69982036 10.04296875 8 C12.06188413 10.12786586 12.06188413 10.12786586 14.75 12.3125 C18.09438294 16.30717963 19.83762387 20.93536115 21 26 C20.53759766 28.16381836 20.53759766 28.16381836 20 30 C19.67837891 29.51233154 19.35675781 29.02466309 19.02539062 28.5222168 C13.29300382 19.84288435 7.5647179 11.19922696 1.328125 2.87109375 C0 1 0 1 0 0 Z " fill="#180A0A" transform="translate(390,284)"/>
<path d="M0 0 C2.14214236 2.14214236 2.4947885 3.11597426 3.2890625 5.95703125 C3.50820313 6.74013672 3.72734375 7.52324219 3.953125 8.33007812 C4.17484375 9.14927734 4.3965625 9.96847656 4.625 10.8125 C4.85445313 11.62009766 5.08390625 12.42769531 5.3203125 13.25976562 C6.41896328 17.25218409 7.32238798 20.81744021 7 25 C4.69 25.33 2.38 25.66 0 26 C0 17.42 0 8.84 0 0 Z " fill="#1D0A0A" transform="translate(333,295)"/>
<path d="M0 0 C0.66 0.33 1.32 0.66 2 1 C1.63237549 1.50861572 1.26475098 2.01723145 0.88598633 2.54125977 C-0.80537472 4.88152948 -2.49643913 7.22201338 -4.1875 9.5625 C-4.76564453 10.36236328 -5.34378906 11.16222656 -5.93945312 11.98632812 C-6.79506836 13.1706543 -6.79506836 13.1706543 -7.66796875 14.37890625 C-8.23177246 15.15637207 -8.79557617 15.93383789 -9.37646484 16.73486328 C-10.42376816 18.19604827 -11.45656202 19.66779582 -12.47119141 21.15185547 C-13.60196776 22.80005648 -14.79490277 24.40533315 -16 26 C-16.66 26 -17.32 26 -18 26 C-16.90983537 15.0983537 -11.05004118 9.81364087 -3 3 C-1.9869582 2.01321415 -0.98052493 1.01910296 0 0 Z " fill="#1E0C0C" transform="translate(120,284)"/>
<path d="M0 0 C-1.3584202 3.04332765 -2.88463024 5.12309151 -5.2578125 7.453125 C-5.88300781 8.071875 -6.50820312 8.690625 -7.15234375 9.328125 C-7.80332031 9.96234375 -8.45429687 10.5965625 -9.125 11.25 C-9.78371094 11.8996875 -10.44242187 12.549375 -11.12109375 13.21875 C-12.74296643 14.81711727 -14.3693281 16.41061897 -16 18 C-16.66 17.67 -17.32 17.34 -18 17 C-3.59400545 0 -3.59400545 0 0 0 Z " fill="#992828" transform="translate(79,292)"/>
<path d="M0 0 C-0.33 1.65 -0.66 3.3 -1 5 C-1.99 5 -2.98 5 -4 5 C-5.61090549 6.19643335 -5.61090549 6.19643335 -7.13671875 7.84375 C-7.71357422 8.43027344 -8.29042969 9.01679688 -8.88476562 9.62109375 C-9.77711914 10.55115234 -9.77711914 10.55115234 -10.6875 11.5 C-11.29400391 12.12003906 -11.90050781 12.74007813 -12.52539062 13.37890625 C-14.02373743 14.91264707 -15.51276493 16.45548198 -17 18 C-17 15 -17 15 -15.65478516 13.2824707 C-15.03909668 12.66976318 -14.4234082 12.05705566 -13.7890625 11.42578125 C-13.12132812 10.75869141 -12.45359375 10.09160156 -11.765625 9.40429688 C-11.05921875 8.71400391 -10.3528125 8.02371094 -9.625 7.3125 C-8.57699219 6.2596582 -8.57699219 6.2596582 -7.5078125 5.18554688 C-2.26683218 0 -2.26683218 0 0 0 Z " fill="#140909" transform="translate(70,330)"/>
<path d="M0 0 C0.99 0.33 1.98 0.66 3 1 C1.04761147 3.00612399 -0.91137822 5.00492433 -2.875 7 C-3.43058594 7.57234375 -3.98617188 8.1446875 -4.55859375 8.734375 C-6.00134404 10.19450782 -7.4974374 11.60149298 -9 13 C-9.66 13 -10.32 13 -11 13 C-9.46356148 9.31930113 -7.21849055 7.01224796 -4.375 4.25 C-3.55773437 3.45078125 -2.74046875 2.6515625 -1.8984375 1.828125 C-0.95871094 0.92320313 -0.95871094 0.92320313 0 0 Z " fill="#AE2C2C" transform="translate(382,0)"/>
<path d="M0 0 C3.76687864 1.88343932 4.79421646 2.69132469 7 6 C6.34 6.66 5.68 7.32 5 8 C2.525 4.04 2.525 4.04 0 0 Z " fill="#693333" transform="translate(390,284)"/>
</svg>
